osim_states
version=1
nRows=4
nColumns=185
inDegrees=yes

# SIMM Motion File Header:
name osim_states
datacolumns 185
datarows 4
otherdata 1
range 0.07201248 0.07239003
endheader
time	platform_rx	platform_ry	platform_rz	platform_ty	pelvis_tilt	pelvis_list	pelvis_rotation	pelvis_tx	pelvis_ty	pelvis_tz	hip_flexion_r	hip_adduction_r	hip_rotation_r	knee_angle_r	patella_r_constrained_knee_angle	ankle_angle_r	subtalar_angle_r	mtp_angle_r	hip_flexion_l	hip_adduction_l	hip_rotation_l	knee_angle_l	patella_l_constrained_knee_angle	ankle_angle_l	subtalar_angle_l	mtp_angle_l	lumbar_extension	lumbar_bending	lumbar_rotation	arm_flex_r	arm_add_r	arm_rot_r	elbow_flex_r	pro_sup_r	wrist_flex_r	wrist_dev_r	arm_flex_l	arm_add_l	arm_rot_l	elbow_flex_l	pro_sup_l	wrist_flex_l	wrist_dev_l	platform_rx_u	platform_ry_u	platform_rz_u	platform_ty_u	pelvis_tilt_u	pelvis_list_u	pelvis_rotation_u	pelvis_tx_u	pelvis_ty_u	pelvis_tz_u	hip_flexion_r_u	hip_adduction_r_u	hip_rotation_r_u	knee_angle_r_u	patella_r_constrained_knee_angle_u	ankle_angle_r_u	subtalar_angle_r_u	mtp_angle_r_u	hip_flexion_l_u	hip_adduction_l_u	hip_rotation_l_u	knee_angle_l_u	patella_l_constrained_knee_angle_u	ankle_angle_l_u	subtalar_angle_l_u	mtp_angle_l_u	lumbar_extension_u	lumbar_bending_u	lumbar_rotation_u	arm_flex_r_u	arm_add_r_u	arm_rot_r_u	elbow_flex_r_u	pro_sup_r_u	wrist_flex_r_u	wrist_dev_r_u	arm_flex_l_u	arm_add_l_u	arm_rot_l_u	elbow_flex_l_u	pro_sup_l_u	wrist_flex_l_u	wrist_dev_l_u	glut_med1_r.activation	glut_med1_r.fiber_length	glut_med2_r.activation	glut_med2_r.fiber_length	glut_med3_r.activation	glut_med3_r.fiber_length	glut_min1_r.activation	glut_min1_r.fiber_length	glut_min2_r.activation	glut_min2_r.fiber_length	glut_min3_r.activation	glut_min3_r.fiber_length	semimem_r.activation	semimem_r.fiber_length	semiten_r.activation	semiten_r.fiber_length	bifemlh_r.activation	bifemlh_r.fiber_length	bifemsh_r.activation	bifemsh_r.fiber_length	sar_r.activation	sar_r.fiber_length	add_long_r.activation	add_long_r.fiber_length	add_brev_r.activation	add_brev_r.fiber_length	add_mag1_r.activation	add_mag1_r.fiber_length	add_mag2_r.activation	add_mag2_r.fiber_length	add_mag3_r.activation	add_mag3_r.fiber_length	tfl_r.activation	tfl_r.fiber_length	pect_r.activation	pect_r.fiber_length	grac_r.activation	grac_r.fiber_length	glut_max1_r.activation	glut_max1_r.fiber_length	glut_max2_r.activation	glut_max2_r.fiber_length	glut_max3_r.activation	glut_max3_r.fiber_length	iliacus_r.activation	iliacus_r.fiber_length	psoas_r.activation	psoas_r.fiber_length	quad_fem_r.activation	quad_fem_r.fiber_length	gem_r.activation	gem_r.fiber_length	peri_r.activation	peri_r.fiber_length	rect_fem_r.activation	rect_fem_r.fiber_length	vas_med_r.activation	vas_med_r.fiber_length	vas_int_r.activation	vas_int_r.fiber_length	vas_lat_r.activation	vas_lat_r.fiber_length	med_gas_r.activation	med_gas_r.fiber_length	lat_gas_r.activation	lat_gas_r.fiber_length	soleus_r.activation	soleus_r.fiber_length	tib_post_r.activation	tib_post_r.fiber_length	flex_dig_r.activation	flex_dig_r.fiber_length	flex_hal_r.activation	flex_hal_r.fiber_length	tib_ant_r.activation	tib_ant_r.fiber_length	per_brev_r.activation	per_brev_r.fiber_length	per_long_r.activation	per_long_r.fiber_length	per_tert_r.activation	per_tert_r.fiber_length	ext_dig_r.activation	ext_dig_r.fiber_length	ext_hal_r.activation	ext_hal_r.fiber_length	ercspn_r.activation	ercspn_r.fiber_length	ercspn_l.activation	ercspn_l.fiber_length	intobl_r.activation	intobl_r.fiber_length	intobl_l.activation	intobl_l.fiber_length	extobl_r.activation	extobl_r.fiber_length	extobl_l.activation	extobl_l.fiber_length
      0.07201248	     -0.00000000	     -0.00000000	     -0.00000000	      0.00000000	    -13.17503721	      1.47061378	     12.13230234	     -0.42750580	      0.93082035	      0.35754948	     46.13288806	     -0.31205828	     -3.75972887	    -49.06313439	    -49.06313439	     14.15021885	    -10.94318341	      0.00001318	     52.13915936	     -0.00000000	     -9.99811353	   -101.98648811	   -101.98648811	      6.49999992	      0.00000000	     -0.00000000	    -15.97906575	     -1.68624146	     -5.30957590	     -0.00000000	     -8.91003344	      0.00000000	     72.06682857	     46.23690339	      0.00000000	      4.87402477	     -0.00000000	     -8.91003344	      0.00000000	     72.06682857	     46.23690339	      0.00000000	      4.87402477	      0.00000000	     -0.00000000	     -0.00000000	      0.00000000	     39.26711917	   -141.74598074	   -110.08307104	     -0.12929077	     -1.55126864	      0.43832196	    242.71095276	    204.72853206	    -44.97134325	   -420.75815397	   -420.75815397	    138.67739893	     -5.06156774	     -0.00000000	      0.00000000	     -0.00000000	      0.00000000	     -0.00000000	      0.00000000	      0.00000000	      0.00000000	     -0.00000000	   -167.84837916	    146.08865658	    165.95973140	      0.00000000	      0.00000000	      0.00000000	     -0.00000000	      0.00000000	      0.00000000	      0.00000000	     -0.00000000	      0.00000000	      0.00000000	     -0.00000000	      0.00000000	      0.00000000	     -0.00000000	      0.18122895	      0.05209641	      0.25956491	      0.09528395	      0.43959387	      0.07925676	      0.10283930	      0.07089625	      0.19127364	      0.06218052	      0.38997744	      0.04293073	      0.17225077	      0.07099388	      0.46012566	      0.23605045	      0.33118150	      0.11657389	      0.21674312	      0.16063330	      0.02600996	      0.44508978	      0.02478599	      0.09472418	      0.02478599	      0.12292713	      0.02544265	      0.07569790	      0.05372355	      0.10680073	      0.14045232	      0.14190881	      0.03597098	      0.08609924	      0.02478599	      0.05895459	      0.02478599	      0.33543266	      0.21904156	      0.10798058	      0.22842704	      0.12255161	      0.22059696	      0.14862868	      0.02478599	      0.07861894	      0.02478599	      0.07169953	      0.29982453	      0.05507445	      0.45834654	      0.02539697	      0.65420099	      0.02608706	      0.24017564	      0.10967293	      0.34192185	      0.08995007	      0.39615717	      0.09177089	      0.35585867	      0.08552185	      0.37514057	      0.05396453	      0.39512923	      0.05871529	      0.56826098	      0.05416876	      0.01000000	      0.04116755	      0.01000000	      0.03908239	      0.01000000	      0.04792431	      0.19176592	      0.08025898	      0.01000000	      0.04839982	      0.01000000	      0.05070754	      0.01000000	      0.07632329	      0.01000000	      0.09498038	      0.01000000	      0.10335486	      0.13017672	      0.13377298	      0.22556922	      0.12938558	      0.02478599	      0.08559991	      0.04767661	      0.08542547	      0.11819402	      0.12130782	      0.05470802	      0.10801169
      0.07216249	     -0.00000000	     -0.00000000	     -0.00000000	      0.00000000	    -13.16914830	      1.44935356	     12.11578289	     -0.42752524	      0.93058776	      0.35761526	     46.16925984	     -0.28134587	     -3.76648901	    -49.12617255	    -49.12617255	     14.17097912	    -10.94395126	      0.00001318	     52.13915936	     -0.00000000	     -9.99811353	   -101.98648811	   -101.98648811	      6.49999992	      0.00000000	     -0.00000000	    -16.00426063	     -1.66434751	     -5.28466789	     -0.00000000	     -8.91003344	      0.00000000	     72.06682857	     46.23690339	      0.00000000	      4.87402477	     -0.00000000	     -8.91003344	      0.00000000	     72.06682857	     46.23690339	      0.00000000	      4.87402477	      0.00000000	     -0.00000000	     -0.00000000	      0.00000000	     39.24707195	   -141.70761542	   -110.16429957	     -0.12978640	     -1.54984591	      0.43874554	    242.21975106	    204.74766627	    -45.15776410	   -419.70469827	   -419.70469827	    138.11194674	     -5.16995830	     -0.00000000	      0.00000000	     -0.00000000	      0.00000000	     -0.00000000	      0.00000000	      0.00000000	      0.00000000	     -0.00000000	   -168.06433671	    145.81398765	    166.12870357	      0.00000000	      0.00000000	      0.00000000	     -0.00000000	      0.00000000	      0.00000000	      0.00000000	     -0.00000000	      0.00000000	      0.00000000	     -0.00000000	      0.00000000	      0.00000000	     -0.00000000	      0.18174072	      0.05211362	      0.25946142	      0.09531384	      0.43935898	      0.07929116	      0.10304835	      0.07090827	      0.19143063	      0.06219823	      0.38994970	      0.04295380	      0.17204104	      0.07097574	      0.46001585	      0.23602378	      0.33111241	      0.11656698	      0.21655390	      0.16059689	      0.02597763	      0.44504181	      0.02475623	      0.09466390	      0.02475623	      0.12289708	      0.02541151	      0.07568505	      0.05363220	      0.10680313	      0.14035707	      0.14193192	      0.03591709	      0.08608833	      0.02475623	      0.05892109	      0.02475623	      0.33538170	      0.21886560	      0.10801664	      0.22819407	      0.12258764	      0.22027308	      0.14865530	      0.02475623	      0.07857782	      0.02475623	      0.07165874	      0.29899190	      0.05508001	      0.45738465	      0.02540620	      0.65392026	      0.02611128	      0.24030054	      0.10969576	      0.34219915	      0.08999219	      0.39647855	      0.09181462	      0.35615246	      0.08556411	      0.37511918	      0.05395880	      0.39511939	      0.05871066	      0.56868920	      0.05418109	      0.01000000	      0.04117005	      0.01000000	      0.03908494	      0.01000000	      0.04792858	      0.19153092	      0.08019679	      0.01000000	      0.04839959	      0.01000000	      0.05070745	      0.01000000	      0.07631491	      0.01000000	      0.09493829	      0.01000000	      0.10330913	      0.13015116	      0.13377013	      0.22595216	      0.12941977	      0.02475623	      0.08555918	      0.04759595	      0.08542646	      0.11791964	      0.12124529	      0.05464110	      0.10801648
      0.07227626	     -0.00000000	     -0.00000000	     -0.00000000	      0.00000000	    -13.16468408	      1.43323320	     12.10324594	     -0.42754002	      0.93041149	      0.35766520	     46.19679609	     -0.25805089	     -3.77163448	    -49.17387699	    -49.17387699	     14.18666760	    -10.94454497	      0.00001318	     52.13915936	     -0.00000000	     -9.99811353	   -101.98648811	   -101.98648811	      6.49999992	      0.00000000	     -0.00000000	    -16.02339055	     -1.64777021	     -5.26576013	     -0.00000000	     -8.91003344	      0.00000000	     72.06682857	     46.23690339	      0.00000000	      4.87402477	     -0.00000000	     -8.91003344	      0.00000000	     72.06682857	     46.23690339	      0.00000000	      4.87402477	      0.00000000	     -0.00000000	     -0.00000000	      0.00000000	     39.23100947	   -141.67768725	   -110.22740819	     -0.13016215	     -1.54876957	      0.43906937	    241.85014870	    204.76338044	    -45.29581804	   -418.90910877	   -418.90910877	    137.68120441	     -5.26882110	     -0.00000000	      0.00000000	     -0.00000000	      0.00000000	     -0.00000000	      0.00000000	      0.00000000	      0.00000000	     -0.00000000	   -168.22718605	    145.60390395	    166.25780598	      0.00000000	      0.00000000	      0.00000000	     -0.00000000	      0.00000000	      0.00000000	      0.00000000	      0.00000000	      0.00000000	      0.00000000	     -0.00000000	      0.00000000	      0.00000000	     -0.00000000	      0.18212406	      0.05212668	      0.25938257	      0.09533649	      0.43918134	      0.07931722	      0.10320417	      0.07091739	      0.19154707	      0.06221166	      0.38992801	      0.04297130	      0.17188192	      0.07096200	      0.45993244	      0.23600360	      0.33106000	      0.11656174	      0.21641031	      0.16056935	      0.02595316	      0.44500552	      0.02473371	      0.09461818	      0.02473371	      0.12287427	      0.02538794	      0.07567529	      0.05356280	      0.10680492	      0.14028443	      0.14194940	      0.03587629	      0.08608009	      0.02473371	      0.05889569	      0.02473371	      0.33534310	      0.21873198	      0.10804395	      0.22801728	      0.12261493	      0.22002732	      0.14867542	      0.02473371	      0.07854663	      0.02473371	      0.07162780	      0.29836212	      0.05508421	      0.45665796	      0.02541319	      0.65370717	      0.02612965	      0.24039491	      0.10971303	      0.34240903	      0.09002406	      0.39672172	      0.09184770	      0.35637479	      0.08559608	      0.37510268	      0.05395446	      0.39511170	      0.05870715	      0.56901296	      0.05419040	      0.01000000	      0.04117194	      0.01000000	      0.03908687	      0.01000000	      0.04793181	      0.19135252	      0.08014965	      0.01000000	      0.04839942	      0.01000000	      0.05070740	      0.01000000	      0.07630858	      0.01000000	      0.09490637	      0.01000000	      0.10327444	      0.13013177	      0.13376799	      0.22624105	      0.12944568	      0.02473371	      0.08552830	      0.04753491	      0.08542719	      0.11771212	      0.12119799	      0.05459012	      0.10802008
      0.07239003	     -0.00000000	     -0.00000000	     -0.00000000	      0.00000000	    -13.16022172	      1.41711630	     12.09070174	     -0.42755485	      0.93023535	      0.35771517	     46.22429043	     -0.23475405	     -3.77679548	    -49.22149110	    -49.22149110	     14.20230715	    -10.94514966	      0.00001318	     52.13915936	     -0.00000000	     -9.99811353	   -101.98648811	   -101.98648811	      6.49999992	      0.00000000	     -0.00000000	    -16.04253895	     -1.63121691	     -5.24683762	     -0.00000000	     -8.91003344	      0.00000000	     72.06682857	     46.23690339	      0.00000000	      4.87402477	     -0.00000000	     -8.91003344	      0.00000000	     72.06682857	     46.23690339	      0.00000000	      4.87402477	      0.00000000	     -0.00000000	     -0.00000000	      0.00000000	     39.21421032	   -141.64704791	   -110.29180533	     -0.13053778	     -1.54769555	      0.43939540	    241.48311822	    204.78012843	    -45.43066241	   -418.11674094	   -418.11674094	    137.25218842	     -5.36130693	     -0.00000000	      0.00000000	     -0.00000000	      0.00000000	     -0.00000000	      0.00000000	      0.00000000	      0.00000000	     -0.00000000	   -168.38922914	    145.39230593	    166.38771780	      0.00000000	      0.00000000	      0.00000000	     -0.00000000	      0.00000000	      0.00000000	      0.00000000	      0.00000000	      0.00000000	      0.00000000	     -0.00000000	      0.00000000	      0.00000000	     -0.00000000	      0.18250327	      0.05213975	      0.25930340	      0.09535912	      0.43900413	      0.07934326	      0.10335772	      0.07092651	      0.19166136	      0.06222509	      0.38990576	      0.04298878	      0.17172276	      0.07094827	      0.45984892	      0.23598343	      0.33100758	      0.11655651	      0.21626666	      0.16054186	      0.02592872	      0.44496929	      0.02471122	      0.09457247	      0.02471122	      0.12285147	      0.02536441	      0.07566550	      0.05349330	      0.10680669	      0.14021146	      0.14196683	      0.03583557	      0.08607188	      0.02471122	      0.05887030	      0.02471122	      0.33530454	      0.21859822	      0.10807123	      0.22784041	      0.12264217	      0.21978146	      0.14869548	      0.02471122	      0.07851545	      0.02471122	      0.07159687	      0.29773382	      0.05508839	      0.45593371	      0.02542017	      0.65349395	      0.02614800	      0.24048898	      0.10973025	      0.34261855	      0.09005585	      0.39696440	      0.09188071	      0.35659670	      0.08562797	      0.37508597	      0.05395012	      0.39510382	      0.05870364	      0.56933586	      0.05419970	      0.01000000	      0.04117383	      0.01000000	      0.03908880	      0.01000000	      0.04793503	      0.19117398	      0.08010252	      0.01000000	      0.04839926	      0.01000000	      0.05070735	      0.01000000	      0.07630227	      0.01000000	      0.09487445	      0.01000000	      0.10323975	      0.13011238	      0.13376585	      0.22652865	      0.12947159	      0.02471122	      0.08549742	      0.04747397	      0.08542788	      0.11750510	      0.12115080	      0.05453896	      0.10802366
